<mxfile host="app.diagrams.net" modified="2023-05-21T04:51:06.809Z" agent="Mozilla/5.0 (Windows NT 10.0; Win64; x64) AppleWebKit/537.36 (KHTML, like Gecko) Chrome/113.0.0.0 Safari/537.36" etag="pOL8kxF8_XBCkc9OTf15" version="21.3.2" type="github">
  <diagram name="Page-1" id="ezfOgxXxeIql9VlVBqjC">
    <mxGraphModel dx="1088" dy="502" grid="1" gridSize="10" guides="1" tooltips="1" connect="1" arrows="1" fold="1" page="1" pageScale="1" pageWidth="850" pageHeight="1100" math="0" shadow="0">
      <root>
        <mxCell id="0" />
        <mxCell id="1" parent="0" />
        <mxCell id="Ka1cJN6JEQj0FcsD8roB-98" value="Actor" style="shape=umlActor;verticalLabelPosition=bottom;verticalAlign=top;html=1;outlineConnect=0;" parent="1" vertex="1">
          <mxGeometry x="1070" y="370" width="90" height="250" as="geometry" />
        </mxCell>
        <mxCell id="Ka1cJN6JEQj0FcsD8roB-1" value="" style="rounded=0;whiteSpace=wrap;html=1;" parent="1" vertex="1">
          <mxGeometry x="150" y="90" width="830" height="1280" as="geometry" />
        </mxCell>
        <mxCell id="Ka1cJN6JEQj0FcsD8roB-3" value="&lt;b&gt;&lt;u&gt;DRUG DISPENSING TOOL&lt;/u&gt;&lt;/b&gt;" style="text;html=1;strokeColor=none;fillColor=none;align=center;verticalAlign=middle;whiteSpace=wrap;rounded=0;" parent="1" vertex="1">
          <mxGeometry x="400" y="80" width="270" height="50" as="geometry" />
        </mxCell>
        <object label="Patient" Patient="" id="Ka1cJN6JEQj0FcsD8roB-5">
          <mxCell style="shape=umlActor;verticalLabelPosition=bottom;verticalAlign=top;html=1;outlineConnect=0;" parent="1" vertex="1">
            <mxGeometry x="100" y="320" width="30" height="90" as="geometry" />
          </mxCell>
        </object>
        <mxCell id="Ka1cJN6JEQj0FcsD8roB-16" value="Enter SSN" style="ellipse;whiteSpace=wrap;html=1;" parent="1" vertex="1">
          <mxGeometry x="340" y="370" width="120" height="50" as="geometry" />
        </mxCell>
        <mxCell id="Ka1cJN6JEQj0FcsD8roB-17" value="" style="endArrow=none;html=1;rounded=0;exitX=1;exitY=0.3333333333333333;exitDx=0;exitDy=0;exitPerimeter=0;" parent="1" source="Ka1cJN6JEQj0FcsD8roB-5" target="Ka1cJN6JEQj0FcsD8roB-16" edge="1">
          <mxGeometry width="50" height="50" relative="1" as="geometry">
            <mxPoint x="130" y="360" as="sourcePoint" />
            <mxPoint x="180" y="310" as="targetPoint" />
          </mxGeometry>
        </mxCell>
        <mxCell id="Ka1cJN6JEQj0FcsD8roB-19" value="Verify SSN" style="ellipse;whiteSpace=wrap;html=1;" parent="1" vertex="1">
          <mxGeometry x="350" y="290" width="120" height="50" as="geometry" />
        </mxCell>
        <mxCell id="Ka1cJN6JEQj0FcsD8roB-20" value="Enter PrescriptionID" style="ellipse;whiteSpace=wrap;html=1;" parent="1" vertex="1">
          <mxGeometry x="340" y="450" width="120" height="40" as="geometry" />
        </mxCell>
        <mxCell id="Ka1cJN6JEQj0FcsD8roB-21" value="" style="endArrow=none;html=1;rounded=0;" parent="1" edge="1">
          <mxGeometry width="50" height="50" relative="1" as="geometry">
            <mxPoint x="130" y="350" as="sourcePoint" />
            <mxPoint x="340" y="470" as="targetPoint" />
            <Array as="points" />
          </mxGeometry>
        </mxCell>
        <mxCell id="Ka1cJN6JEQj0FcsD8roB-31" value="Doctor" style="shape=umlActor;verticalLabelPosition=bottom;verticalAlign=top;html=1;outlineConnect=0;" parent="1" vertex="1">
          <mxGeometry x="90" y="520" width="30" height="70" as="geometry" />
        </mxCell>
        <mxCell id="Ka1cJN6JEQj0FcsD8roB-33" value="Give Prescription" style="ellipse;whiteSpace=wrap;html=1;" parent="1" vertex="1">
          <mxGeometry x="290" y="540" width="120" height="60" as="geometry" />
        </mxCell>
        <mxCell id="Ka1cJN6JEQj0FcsD8roB-34" value="" style="endArrow=none;html=1;rounded=0;exitX=1;exitY=0.3333333333333333;exitDx=0;exitDy=0;exitPerimeter=0;" parent="1" source="Ka1cJN6JEQj0FcsD8roB-31" edge="1">
          <mxGeometry width="50" height="50" relative="1" as="geometry">
            <mxPoint x="240" y="620" as="sourcePoint" />
            <mxPoint x="290" y="570" as="targetPoint" />
          </mxGeometry>
        </mxCell>
        <mxCell id="Ka1cJN6JEQj0FcsD8roB-35" value="" style="endArrow=none;html=1;rounded=0;" parent="1" edge="1">
          <mxGeometry width="50" height="50" relative="1" as="geometry">
            <mxPoint x="120" y="550" as="sourcePoint" />
            <mxPoint x="380" y="500" as="targetPoint" />
          </mxGeometry>
        </mxCell>
        <mxCell id="Ka1cJN6JEQj0FcsD8roB-37" value="" style="endArrow=none;dashed=1;html=1;dashPattern=1 3;strokeWidth=2;rounded=0;entryX=1;entryY=0;entryDx=0;entryDy=0;" parent="1" source="Ka1cJN6JEQj0FcsD8roB-19" target="Ka1cJN6JEQj0FcsD8roB-16" edge="1">
          <mxGeometry width="50" height="50" relative="1" as="geometry">
            <mxPoint x="310" y="520" as="sourcePoint" />
            <mxPoint x="360" y="470" as="targetPoint" />
          </mxGeometry>
        </mxCell>
        <mxCell id="Ka1cJN6JEQj0FcsD8roB-38" value="&amp;lt;&amp;lt;include&amp;gt;&amp;gt;" style="text;html=1;strokeColor=none;fillColor=none;align=center;verticalAlign=middle;whiteSpace=wrap;rounded=0;" parent="1" vertex="1">
          <mxGeometry x="430" y="340" width="60" height="30" as="geometry" />
        </mxCell>
        <mxCell id="Ka1cJN6JEQj0FcsD8roB-42" value="" style="endArrow=none;dashed=1;html=1;dashPattern=1 3;strokeWidth=2;rounded=0;" parent="1" target="Ka1cJN6JEQj0FcsD8roB-43" edge="1">
          <mxGeometry width="50" height="50" relative="1" as="geometry">
            <mxPoint x="460" y="470" as="sourcePoint" />
            <mxPoint x="510" y="420" as="targetPoint" />
          </mxGeometry>
        </mxCell>
        <mxCell id="Ka1cJN6JEQj0FcsD8roB-43" value="show dosage" style="ellipse;whiteSpace=wrap;html=1;" parent="1" vertex="1">
          <mxGeometry x="390" y="510" width="120" height="40" as="geometry" />
        </mxCell>
        <mxCell id="Ka1cJN6JEQj0FcsD8roB-45" value="&amp;lt;&amp;lt;include&amp;gt;&amp;gt;" style="text;html=1;strokeColor=none;fillColor=none;align=center;verticalAlign=middle;whiteSpace=wrap;rounded=0;" parent="1" vertex="1">
          <mxGeometry x="450" y="480" width="60" height="30" as="geometry" />
        </mxCell>
        <mxCell id="Ka1cJN6JEQj0FcsD8roB-46" value="" style="endArrow=none;dashed=1;html=1;dashPattern=1 3;strokeWidth=2;rounded=0;" parent="1" edge="1">
          <mxGeometry width="50" height="50" relative="1" as="geometry">
            <mxPoint x="350" y="540" as="sourcePoint" />
            <mxPoint x="400" y="490" as="targetPoint" />
          </mxGeometry>
        </mxCell>
        <mxCell id="Ka1cJN6JEQj0FcsD8roB-47" value="&amp;lt;&amp;lt;include&amp;gt;&amp;gt;" style="text;html=1;strokeColor=none;fillColor=none;align=center;verticalAlign=middle;whiteSpace=wrap;rounded=0;" parent="1" vertex="1">
          <mxGeometry x="320" y="510" width="60" height="30" as="geometry" />
        </mxCell>
        <mxCell id="Ka1cJN6JEQj0FcsD8roB-48" value="View prescription&amp;nbsp;&lt;br&gt;history" style="ellipse;whiteSpace=wrap;html=1;" parent="1" vertex="1">
          <mxGeometry x="160" y="450" width="120" height="50" as="geometry" />
        </mxCell>
        <mxCell id="Ka1cJN6JEQj0FcsD8roB-49" value="" style="endArrow=none;html=1;rounded=0;entryX=1;entryY=0.3333333333333333;entryDx=0;entryDy=0;entryPerimeter=0;" parent="1" target="Ka1cJN6JEQj0FcsD8roB-5" edge="1">
          <mxGeometry width="50" height="50" relative="1" as="geometry">
            <mxPoint x="180" y="460" as="sourcePoint" />
            <mxPoint x="230" y="410" as="targetPoint" />
          </mxGeometry>
        </mxCell>
        <mxCell id="Ka1cJN6JEQj0FcsD8roB-52" value="" style="endArrow=none;html=1;rounded=0;entryX=0.222;entryY=0.942;entryDx=0;entryDy=0;entryPerimeter=0;" parent="1" target="Ka1cJN6JEQj0FcsD8roB-48" edge="1">
          <mxGeometry width="50" height="50" relative="1" as="geometry">
            <mxPoint x="130" y="540" as="sourcePoint" />
            <mxPoint x="180" y="500" as="targetPoint" />
          </mxGeometry>
        </mxCell>
        <mxCell id="Ka1cJN6JEQj0FcsD8roB-54" value="" style="endArrow=none;html=1;rounded=0;entryX=0.606;entryY=0.941;entryDx=0;entryDy=0;entryPerimeter=0;" parent="1" target="Ka1cJN6JEQj0FcsD8roB-55" edge="1">
          <mxGeometry width="50" height="50" relative="1" as="geometry">
            <mxPoint x="130" y="350" as="sourcePoint" />
            <mxPoint x="320" y="230" as="targetPoint" />
          </mxGeometry>
        </mxCell>
        <mxCell id="Ka1cJN6JEQj0FcsD8roB-55" value="Use insurance" style="ellipse;whiteSpace=wrap;html=1;" parent="1" vertex="1">
          <mxGeometry x="160" y="240" width="120" height="40" as="geometry" />
        </mxCell>
        <mxCell id="Ka1cJN6JEQj0FcsD8roB-56" value="" style="endArrow=none;html=1;rounded=0;" parent="1" edge="1">
          <mxGeometry width="50" height="50" relative="1" as="geometry">
            <mxPoint x="130" y="350" as="sourcePoint" />
            <mxPoint x="320" y="270" as="targetPoint" />
          </mxGeometry>
        </mxCell>
        <mxCell id="Ka1cJN6JEQj0FcsD8roB-57" value="buy drugs" style="ellipse;whiteSpace=wrap;html=1;" parent="1" vertex="1">
          <mxGeometry x="300" y="220" width="120" height="60" as="geometry" />
        </mxCell>
        <mxCell id="Ka1cJN6JEQj0FcsD8roB-58" value="show price" style="ellipse;whiteSpace=wrap;html=1;" parent="1" vertex="1">
          <mxGeometry x="510" y="200" width="120" height="80" as="geometry" />
        </mxCell>
        <mxCell id="Ka1cJN6JEQj0FcsD8roB-60" value="" style="endArrow=none;dashed=1;html=1;dashPattern=1 3;strokeWidth=2;rounded=0;entryX=0;entryY=0.5;entryDx=0;entryDy=0;exitX=0.979;exitY=0.688;exitDx=0;exitDy=0;exitPerimeter=0;" parent="1" source="Ka1cJN6JEQj0FcsD8roB-57" target="Ka1cJN6JEQj0FcsD8roB-58" edge="1">
          <mxGeometry width="50" height="50" relative="1" as="geometry">
            <mxPoint x="450" y="320" as="sourcePoint" />
            <mxPoint x="500" y="270" as="targetPoint" />
          </mxGeometry>
        </mxCell>
        <mxCell id="Ka1cJN6JEQj0FcsD8roB-62" value="&amp;lt;&amp;lt;include&amp;gt;&amp;gt;" style="text;html=1;strokeColor=none;fillColor=none;align=center;verticalAlign=middle;whiteSpace=wrap;rounded=0;" parent="1" vertex="1">
          <mxGeometry x="430" y="220" width="60" height="30" as="geometry" />
        </mxCell>
        <mxCell id="Ka1cJN6JEQj0FcsD8roB-63" value="display prescription&lt;br&gt;identification error" style="ellipse;whiteSpace=wrap;html=1;" parent="1" vertex="1">
          <mxGeometry x="540" y="440" width="120" height="60" as="geometry" />
        </mxCell>
        <mxCell id="Ka1cJN6JEQj0FcsD8roB-64" value="" style="endArrow=none;dashed=1;html=1;dashPattern=1 3;strokeWidth=2;rounded=0;entryX=0;entryY=0.5;entryDx=0;entryDy=0;" parent="1" target="Ka1cJN6JEQj0FcsD8roB-63" edge="1">
          <mxGeometry width="50" height="50" relative="1" as="geometry">
            <mxPoint x="460" y="470" as="sourcePoint" />
            <mxPoint x="510" y="420" as="targetPoint" />
          </mxGeometry>
        </mxCell>
        <mxCell id="Ka1cJN6JEQj0FcsD8roB-65" value="&amp;lt;&amp;lt;extend&amp;gt;&amp;gt;" style="text;html=1;strokeColor=none;fillColor=none;align=center;verticalAlign=middle;whiteSpace=wrap;rounded=0;" parent="1" vertex="1">
          <mxGeometry x="470" y="440" width="60" height="30" as="geometry" />
        </mxCell>
        <mxCell id="Ka1cJN6JEQj0FcsD8roB-68" value="" style="endArrow=none;dashed=1;html=1;dashPattern=1 3;strokeWidth=2;rounded=0;entryX=0;entryY=0.5;entryDx=0;entryDy=0;" parent="1" source="Ka1cJN6JEQj0FcsD8roB-70" target="Ka1cJN6JEQj0FcsD8roB-69" edge="1">
          <mxGeometry width="50" height="50" relative="1" as="geometry">
            <mxPoint x="470" y="320" as="sourcePoint" />
            <mxPoint x="520" y="270" as="targetPoint" />
          </mxGeometry>
        </mxCell>
        <mxCell id="Ka1cJN6JEQj0FcsD8roB-69" value="display patient login&lt;br&gt;error" style="ellipse;whiteSpace=wrap;html=1;" parent="1" vertex="1">
          <mxGeometry x="580" y="280" width="120" height="80" as="geometry" />
        </mxCell>
        <mxCell id="Ka1cJN6JEQj0FcsD8roB-71" value="" style="endArrow=none;dashed=1;html=1;dashPattern=1 3;strokeWidth=2;rounded=0;entryX=0;entryY=0.5;entryDx=0;entryDy=0;" parent="1" target="Ka1cJN6JEQj0FcsD8roB-70" edge="1">
          <mxGeometry width="50" height="50" relative="1" as="geometry">
            <mxPoint x="470" y="320" as="sourcePoint" />
            <mxPoint x="580" y="320" as="targetPoint" />
          </mxGeometry>
        </mxCell>
        <mxCell id="Ka1cJN6JEQj0FcsD8roB-70" value="&amp;lt;&amp;lt;extend&amp;gt;&amp;gt;" style="text;html=1;strokeColor=none;fillColor=none;align=center;verticalAlign=middle;whiteSpace=wrap;rounded=0;" parent="1" vertex="1">
          <mxGeometry x="500" y="290" width="60" height="30" as="geometry" />
        </mxCell>
        <mxCell id="Ka1cJN6JEQj0FcsD8roB-72" value="PHARMACEUTICAL&lt;br&gt;COMPANY" style="shape=umlActor;verticalLabelPosition=bottom;verticalAlign=top;html=1;outlineConnect=0;" parent="1" vertex="1">
          <mxGeometry x="70" y="670" width="40" height="80" as="geometry" />
        </mxCell>
        <mxCell id="Ka1cJN6JEQj0FcsD8roB-75" value="" style="endArrow=none;html=1;rounded=0;exitX=0;exitY=0.5;exitDx=0;exitDy=0;" parent="1" source="Ka1cJN6JEQj0FcsD8roB-78" edge="1">
          <mxGeometry width="50" height="50" relative="1" as="geometry">
            <mxPoint x="240" y="830" as="sourcePoint" />
            <mxPoint x="110" y="690" as="targetPoint" />
          </mxGeometry>
        </mxCell>
        <mxCell id="Ka1cJN6JEQj0FcsD8roB-78" value="Manufacture drugs" style="ellipse;whiteSpace=wrap;html=1;" parent="1" vertex="1">
          <mxGeometry x="260" y="750" width="120" height="70" as="geometry" />
        </mxCell>
        <mxCell id="Ka1cJN6JEQj0FcsD8roB-83" value="" style="endArrow=none;html=1;rounded=0;" parent="1" edge="1">
          <mxGeometry width="50" height="50" relative="1" as="geometry">
            <mxPoint x="260" y="920" as="sourcePoint" />
            <mxPoint x="110" y="700" as="targetPoint" />
          </mxGeometry>
        </mxCell>
        <mxCell id="Ka1cJN6JEQj0FcsD8roB-84" value="Supply drugs" style="ellipse;whiteSpace=wrap;html=1;" parent="1" vertex="1">
          <mxGeometry x="240" y="850" width="120" height="80" as="geometry" />
        </mxCell>
        <mxCell id="Ka1cJN6JEQj0FcsD8roB-85" value="Pharmacy" style="shape=umlActor;verticalLabelPosition=bottom;verticalAlign=top;html=1;outlineConnect=0;" parent="1" vertex="1">
          <mxGeometry x="30" y="1040" width="30" height="60" as="geometry" />
        </mxCell>
        <mxCell id="Ka1cJN6JEQj0FcsD8roB-86" value="" style="endArrow=none;html=1;rounded=0;exitX=1;exitY=0.3333333333333333;exitDx=0;exitDy=0;exitPerimeter=0;entryX=-0.01;entryY=0.688;entryDx=0;entryDy=0;entryPerimeter=0;" parent="1" source="Ka1cJN6JEQj0FcsD8roB-85" target="Ka1cJN6JEQj0FcsD8roB-87" edge="1">
          <mxGeometry width="50" height="50" relative="1" as="geometry">
            <mxPoint x="220" y="1180" as="sourcePoint" />
            <mxPoint x="270" y="1130" as="targetPoint" />
          </mxGeometry>
        </mxCell>
        <mxCell id="Ka1cJN6JEQj0FcsD8roB-87" value="Sells drugs" style="ellipse;whiteSpace=wrap;html=1;" parent="1" vertex="1">
          <mxGeometry x="260" y="1010" width="120" height="80" as="geometry" />
        </mxCell>
        <mxCell id="Ka1cJN6JEQj0FcsD8roB-89" value="" style="endArrow=none;html=1;rounded=0;" parent="1" target="Ka1cJN6JEQj0FcsD8roB-90" edge="1">
          <mxGeometry width="50" height="50" relative="1" as="geometry">
            <mxPoint x="110" y="1060" as="sourcePoint" />
            <mxPoint x="270" y="1090" as="targetPoint" />
          </mxGeometry>
        </mxCell>
        <mxCell id="Ka1cJN6JEQj0FcsD8roB-90" value="manage company info" style="ellipse;whiteSpace=wrap;html=1;" parent="1" vertex="1">
          <mxGeometry x="280" y="1120" width="190" height="60" as="geometry" />
        </mxCell>
        <mxCell id="Ka1cJN6JEQj0FcsD8roB-91" value="" style="endArrow=none;html=1;rounded=0;entryX=0.25;entryY=1.018;entryDx=0;entryDy=0;entryPerimeter=0;" parent="1" target="Ka1cJN6JEQj0FcsD8roB-84" edge="1">
          <mxGeometry width="50" height="50" relative="1" as="geometry">
            <mxPoint x="130" y="1070" as="sourcePoint" />
            <mxPoint x="180" y="1020" as="targetPoint" />
          </mxGeometry>
        </mxCell>
        <mxCell id="Ka1cJN6JEQj0FcsD8roB-93" value="" style="endArrow=none;html=1;rounded=0;" parent="1" target="Ka1cJN6JEQj0FcsD8roB-94" edge="1">
          <mxGeometry width="50" height="50" relative="1" as="geometry">
            <mxPoint x="100" y="1060" as="sourcePoint" />
            <mxPoint x="110" y="1060" as="targetPoint" />
          </mxGeometry>
        </mxCell>
        <mxCell id="Ka1cJN6JEQj0FcsD8roB-94" value="Refill drugs" style="ellipse;whiteSpace=wrap;html=1;" parent="1" vertex="1">
          <mxGeometry x="460" y="1270.0000000000002" width="120" height="80" as="geometry" />
        </mxCell>
        <mxCell id="Ka1cJN6JEQj0FcsD8roB-95" value="" style="endArrow=none;dashed=1;html=1;dashPattern=1 3;strokeWidth=2;rounded=0;exitX=1;exitY=0.5;exitDx=0;exitDy=0;" parent="1" source="Ka1cJN6JEQj0FcsD8roB-94" target="Ka1cJN6JEQj0FcsD8roB-97" edge="1">
          <mxGeometry width="50" height="50" relative="1" as="geometry">
            <mxPoint x="660" y="1290" as="sourcePoint" />
            <mxPoint x="710" y="1240" as="targetPoint" />
          </mxGeometry>
        </mxCell>
        <mxCell id="Ka1cJN6JEQj0FcsD8roB-97" value="manage inventory" style="ellipse;whiteSpace=wrap;html=1;" parent="1" vertex="1">
          <mxGeometry x="660" y="1140" width="120" height="80" as="geometry" />
        </mxCell>
        <mxCell id="Ka1cJN6JEQj0FcsD8roB-122" value="" style="edgeStyle=orthogonalEdgeStyle;rounded=0;orthogonalLoop=1;jettySize=auto;html=1;" parent="1" source="Ka1cJN6JEQj0FcsD8roB-101" target="Ka1cJN6JEQj0FcsD8roB-121" edge="1">
          <mxGeometry relative="1" as="geometry" />
        </mxCell>
        <mxCell id="Ka1cJN6JEQj0FcsD8roB-101" value="Actor" style="shape=umlActor;verticalLabelPosition=bottom;verticalAlign=top;html=1;outlineConnect=0;" parent="1" vertex="1">
          <mxGeometry x="1100" y="850" width="100" height="190" as="geometry" />
        </mxCell>
        <mxCell id="Ka1cJN6JEQj0FcsD8roB-102" value="" style="endArrow=none;html=1;rounded=0;exitX=0.5;exitY=0;exitDx=0;exitDy=0;entryX=0;entryY=0.3333333333333333;entryDx=0;entryDy=0;entryPerimeter=0;" parent="1" source="Ka1cJN6JEQj0FcsD8roB-97" target="Ka1cJN6JEQj0FcsD8roB-98" edge="1">
          <mxGeometry width="50" height="50" relative="1" as="geometry">
            <mxPoint x="730" y="980" as="sourcePoint" />
            <mxPoint x="780" y="930" as="targetPoint" />
          </mxGeometry>
        </mxCell>
        <mxCell id="Ka1cJN6JEQj0FcsD8roB-103" value="" style="endArrow=none;html=1;rounded=0;entryX=0;entryY=0.3333333333333333;entryDx=0;entryDy=0;entryPerimeter=0;exitX=0.967;exitY=0.669;exitDx=0;exitDy=0;exitPerimeter=0;" parent="1" source="Ka1cJN6JEQj0FcsD8roB-104" target="Ka1cJN6JEQj0FcsD8roB-98" edge="1">
          <mxGeometry width="50" height="50" relative="1" as="geometry">
            <mxPoint x="780" y="800" as="sourcePoint" />
            <mxPoint x="830" y="750" as="targetPoint" />
          </mxGeometry>
        </mxCell>
        <mxCell id="Ka1cJN6JEQj0FcsD8roB-104" value="Register Drugs" style="ellipse;whiteSpace=wrap;html=1;" parent="1" vertex="1">
          <mxGeometry x="640" y="690" width="120" height="80" as="geometry" />
        </mxCell>
        <mxCell id="Ka1cJN6JEQj0FcsD8roB-105" value="" style="endArrow=none;html=1;rounded=0;entryX=0;entryY=0.3333333333333333;entryDx=0;entryDy=0;entryPerimeter=0;exitX=1;exitY=0.5;exitDx=0;exitDy=0;" parent="1" source="Ka1cJN6JEQj0FcsD8roB-106" target="Ka1cJN6JEQj0FcsD8roB-101" edge="1">
          <mxGeometry width="50" height="50" relative="1" as="geometry">
            <mxPoint x="790" y="1060" as="sourcePoint" />
            <mxPoint x="840" y="1010" as="targetPoint" />
          </mxGeometry>
        </mxCell>
        <mxCell id="Ka1cJN6JEQj0FcsD8roB-106" value="Manage Supervisor Info" style="ellipse;whiteSpace=wrap;html=1;" parent="1" vertex="1">
          <mxGeometry x="550" y="860" width="120" height="80" as="geometry" />
        </mxCell>
        <mxCell id="Ka1cJN6JEQj0FcsD8roB-108" value="" style="endArrow=none;html=1;rounded=0;" parent="1" target="Ka1cJN6JEQj0FcsD8roB-109" edge="1">
          <mxGeometry width="50" height="50" relative="1" as="geometry">
            <mxPoint x="1060" y="910" as="sourcePoint" />
            <mxPoint x="1090" y="910" as="targetPoint" />
          </mxGeometry>
        </mxCell>
        <mxCell id="Ka1cJN6JEQj0FcsD8roB-109" value="Manage contract" style="ellipse;whiteSpace=wrap;html=1;" parent="1" vertex="1">
          <mxGeometry x="540" y="1000" width="120" height="80" as="geometry" />
        </mxCell>
        <mxCell id="Ka1cJN6JEQj0FcsD8roB-110" value="" style="endArrow=none;html=1;rounded=0;" parent="1" target="Ka1cJN6JEQj0FcsD8roB-111" edge="1">
          <mxGeometry width="50" height="50" relative="1" as="geometry">
            <mxPoint x="1070" y="910" as="sourcePoint" />
            <mxPoint x="1050" y="910" as="targetPoint" />
          </mxGeometry>
        </mxCell>
        <mxCell id="Ka1cJN6JEQj0FcsD8roB-111" value="manage pharmacy info" style="ellipse;whiteSpace=wrap;html=1;" parent="1" vertex="1">
          <mxGeometry x="505" y="1110" width="120" height="80" as="geometry" />
        </mxCell>
        <mxCell id="Ka1cJN6JEQj0FcsD8roB-112" value="&amp;lt;&amp;lt;inckude&amp;gt;&amp;gt;&lt;br&gt;" style="text;html=1;strokeColor=none;fillColor=none;align=center;verticalAlign=middle;whiteSpace=wrap;rounded=0;" parent="1" vertex="1">
          <mxGeometry x="640" y="1250" width="60" height="80" as="geometry" />
        </mxCell>
        <mxCell id="Ka1cJN6JEQj0FcsD8roB-113" value="" style="endArrow=none;html=1;rounded=0;exitX=1;exitY=0.5;exitDx=0;exitDy=0;entryX=0;entryY=0.5;entryDx=0;entryDy=0;" parent="1" source="Ka1cJN6JEQj0FcsD8roB-90" target="Ka1cJN6JEQj0FcsD8roB-111" edge="1">
          <mxGeometry width="50" height="50" relative="1" as="geometry">
            <mxPoint x="660" y="1040" as="sourcePoint" />
            <mxPoint x="710" y="990" as="targetPoint" />
          </mxGeometry>
        </mxCell>
        <mxCell id="Ka1cJN6JEQj0FcsD8roB-121" value="SUPERVISOR" style="text;html=1;align=center;verticalAlign=middle;resizable=0;points=[];autosize=1;strokeColor=none;fillColor=none;" parent="1" vertex="1">
          <mxGeometry x="1085" y="1150" width="100" height="30" as="geometry" />
        </mxCell>
        <mxCell id="Ka1cJN6JEQj0FcsD8roB-124" value="" style="edgeStyle=orthogonalEdgeStyle;rounded=0;orthogonalLoop=1;jettySize=auto;html=1;" parent="1" source="Ka1cJN6JEQj0FcsD8roB-123" target="Ka1cJN6JEQj0FcsD8roB-98" edge="1">
          <mxGeometry relative="1" as="geometry" />
        </mxCell>
        <mxCell id="Ka1cJN6JEQj0FcsD8roB-123" value="PHARAMCIST" style="text;html=1;strokeColor=none;fillColor=none;align=center;verticalAlign=middle;whiteSpace=wrap;rounded=0;" parent="1" vertex="1">
          <mxGeometry x="1085" y="720" width="60" height="30" as="geometry" />
        </mxCell>
      </root>
    </mxGraphModel>
  </diagram>
</mxfile>
